<mxfile host="65bd71144e">
    <diagram id="p1_5BQv6YbnnKd3vheeq" name="第 1 页">
        <mxGraphModel dx="1077" dy="537" grid="1" gridSize="10" guides="1" tooltips="1" connect="1" arrows="1" fold="1" page="1" pageScale="1" pageWidth="827" pageHeight="1169" math="0" shadow="0">
            <root>
                <mxCell id="0"/>
                <mxCell id="1" parent="0"/>
                <mxCell id="41" value="" style="rounded=0;whiteSpace=wrap;html=1;fontSize=11;" parent="1" vertex="1">
                    <mxGeometry x="60" y="1210" width="680" height="150" as="geometry"/>
                </mxCell>
                <mxCell id="2" value="user&lt;br&gt;controller" style="ellipse;whiteSpace=wrap;html=1;aspect=fixed;" parent="1" vertex="1">
                    <mxGeometry x="80" y="200" width="60" height="60" as="geometry"/>
                </mxCell>
                <mxCell id="3" style="edgeStyle=none;html=1;exitX=0;exitY=0.5;exitDx=0;exitDy=0;entryX=1;entryY=0.5;entryDx=0;entryDy=0;" parent="1" source="4" target="2" edge="1">
                    <mxGeometry relative="1" as="geometry"/>
                </mxCell>
                <mxCell id="4" value="token&lt;br&gt;controller" style="ellipse;whiteSpace=wrap;html=1;aspect=fixed;" parent="1" vertex="1">
                    <mxGeometry x="182.25" y="200" width="60" height="60" as="geometry"/>
                </mxCell>
                <mxCell id="5" style="edgeStyle=none;html=1;exitX=0.5;exitY=1;exitDx=0;exitDy=0;" parent="1" source="6" target="4" edge="1">
                    <mxGeometry relative="1" as="geometry"/>
                </mxCell>
                <mxCell id="6" value="token&lt;br&gt;api handler" style="ellipse;whiteSpace=wrap;html=1;aspect=fixed;" parent="1" vertex="1">
                    <mxGeometry x="182.25" y="110" width="60" height="60" as="geometry"/>
                </mxCell>
                <mxCell id="7" value="&lt;div style=&quot;color: rgb(101, 123, 131); background-color: rgb(253, 246, 227); font-family: Consolas, &amp;quot;Courier New&amp;quot;, monospace; font-weight: normal; line-height: 24px;&quot;&gt;&lt;div style=&quot;&quot;&gt;&lt;span style=&quot;color: rgb(101, 123, 131);&quot;&gt;&lt;span style=&quot;font-size: 18px;&quot;&gt;&amp;nbsp; &amp;nbsp;&lt;/span&gt;&lt;font style=&quot;font-size: 11px;&quot;&gt; &lt;/font&gt;&lt;/span&gt;&lt;span style=&quot;color: rgb(147, 161, 161); font-style: italic;&quot;&gt;&lt;font size=&quot;3&quot;&gt;//2. 初始化控制&lt;/font&gt;&lt;/span&gt;&lt;/div&gt;&lt;div style=&quot;&quot;&gt;&lt;font size=&quot;3&quot;&gt;&lt;span style=&quot;color: #657b83;&quot;&gt;&amp;nbsp; &amp;nbsp; &lt;/span&gt;&lt;span style=&quot;color: #93a1a1;font-style: italic;&quot;&gt;// 2.1 user controller&lt;/span&gt;&lt;/font&gt;&lt;/div&gt;&lt;div style=&quot;&quot;&gt;&lt;font size=&quot;3&quot;&gt;&lt;span style=&quot;color: #657b83;&quot;&gt;&amp;nbsp; &amp;nbsp; &lt;/span&gt;&lt;span style=&quot;color: #268bd2;&quot;&gt;userServiceImpl&lt;/span&gt;&lt;span style=&quot;color: #657b83;&quot;&gt; &lt;/span&gt;&lt;span style=&quot;color: #859900;&quot;&gt;:=&lt;/span&gt;&lt;span style=&quot;color: #657b83;&quot;&gt; userImpl.&lt;/span&gt;&lt;span style=&quot;color: #268bd2;&quot;&gt;NewUserServiceImpl&lt;/span&gt;&lt;span style=&quot;color: #657b83;&quot;&gt;()&lt;/span&gt;&lt;/font&gt;&lt;/div&gt;&lt;font size=&quot;3&quot;&gt;&lt;br&gt;&lt;/font&gt;&lt;div style=&quot;&quot;&gt;&lt;font size=&quot;3&quot;&gt;&lt;span style=&quot;color: #657b83;&quot;&gt;&amp;nbsp; &amp;nbsp; &lt;/span&gt;&lt;span style=&quot;color: #93a1a1;font-style: italic;&quot;&gt;// 2.2 token controller&lt;/span&gt;&lt;/font&gt;&lt;/div&gt;&lt;div style=&quot;&quot;&gt;&lt;font size=&quot;3&quot;&gt;&lt;span style=&quot;color: #657b83;&quot;&gt;&amp;nbsp; &amp;nbsp; &lt;/span&gt;&lt;span style=&quot;color: #268bd2;&quot;&gt;tokenServiceImpl&lt;/span&gt;&lt;span style=&quot;color: #657b83;&quot;&gt; &lt;/span&gt;&lt;span style=&quot;color: #859900;&quot;&gt;:=&lt;/span&gt;&lt;span style=&quot;color: #657b83;&quot;&gt; tokenImpl.&lt;/span&gt;&lt;span style=&quot;color: #268bd2;&quot;&gt;NewTokenServiceImpl&lt;/span&gt;&lt;span style=&quot;color: #657b83;&quot;&gt;(userServiceImpl)&lt;/span&gt;&lt;/font&gt;&lt;/div&gt;&lt;font size=&quot;3&quot;&gt;&lt;br&gt;&lt;/font&gt;&lt;div style=&quot;&quot;&gt;&lt;font size=&quot;3&quot;&gt;&lt;span style=&quot;color: #657b83;&quot;&gt;&amp;nbsp; &amp;nbsp; &lt;/span&gt;&lt;span style=&quot;color: #93a1a1;font-style: italic;&quot;&gt;// 2.3 token api handler&lt;/span&gt;&lt;/font&gt;&lt;/div&gt;&lt;div style=&quot;&quot;&gt;&lt;font size=&quot;3&quot;&gt;&lt;span style=&quot;color: rgb(101, 123, 131);&quot;&gt;&amp;nbsp; &amp;nbsp; &lt;/span&gt;&lt;span style=&quot;color: rgb(38, 139, 210);&quot;&gt;tkApiHandler&lt;/span&gt;&lt;span style=&quot;color: rgb(101, 123, 131);&quot;&gt; &lt;/span&gt;&lt;span style=&quot;color: rgb(133, 153, 0);&quot;&gt;:=&lt;/span&gt;&lt;span style=&quot;color: rgb(101, 123, 131);&quot;&gt; tokenApiHandler.&lt;/span&gt;&lt;span style=&quot;color: rgb(38, 139, 210);&quot;&gt;NewTokenApiHandler&lt;/span&gt;&lt;span style=&quot;color: rgb(101, 123, 131);&quot;&gt;(tokenServiceImpl)&lt;/span&gt;&lt;/font&gt;&lt;/div&gt;&lt;/div&gt;" style="text;whiteSpace=wrap;html=1;" parent="1" vertex="1">
                    <mxGeometry x="340" y="10" width="470" height="310" as="geometry"/>
                </mxCell>
                <mxCell id="8" value="" style="rounded=0;whiteSpace=wrap;html=1;fontSize=11;" parent="1" vertex="1">
                    <mxGeometry x="60" y="585" width="680" height="220" as="geometry"/>
                </mxCell>
                <mxCell id="16" style="edgeStyle=none;html=1;exitX=1;exitY=0.5;exitDx=0;exitDy=0;fontSize=11;" parent="1" source="9" target="10" edge="1">
                    <mxGeometry relative="1" as="geometry"/>
                </mxCell>
                <mxCell id="9" value="B" style="ellipse;whiteSpace=wrap;html=1;aspect=fixed;fontSize=11;" parent="1" vertex="1">
                    <mxGeometry x="112.25" y="615" width="80" height="80" as="geometry"/>
                </mxCell>
                <mxCell id="19" style="edgeStyle=none;html=1;exitX=1;exitY=1;exitDx=0;exitDy=0;fontSize=11;" parent="1" source="10" target="14" edge="1">
                    <mxGeometry relative="1" as="geometry"/>
                </mxCell>
                <mxCell id="20" style="edgeStyle=none;html=1;exitX=1;exitY=0.5;exitDx=0;exitDy=0;fontSize=11;" parent="1" source="10" target="11" edge="1">
                    <mxGeometry relative="1" as="geometry"/>
                </mxCell>
                <mxCell id="10" value="C" style="ellipse;whiteSpace=wrap;html=1;aspect=fixed;fontSize=11;" parent="1" vertex="1">
                    <mxGeometry x="260" y="615" width="80" height="80" as="geometry"/>
                </mxCell>
                <mxCell id="11" value="" style="ellipse;whiteSpace=wrap;html=1;aspect=fixed;fontSize=11;fontStyle=1" parent="1" vertex="1">
                    <mxGeometry x="410" y="615" width="80" height="80" as="geometry"/>
                </mxCell>
                <mxCell id="12" value="" style="ellipse;whiteSpace=wrap;html=1;aspect=fixed;fontSize=11;fontStyle=1" parent="1" vertex="1">
                    <mxGeometry x="560" y="615" width="80" height="80" as="geometry"/>
                </mxCell>
                <mxCell id="17" style="edgeStyle=none;html=1;exitX=0;exitY=0;exitDx=0;exitDy=0;fontSize=11;" parent="1" source="13" target="9" edge="1">
                    <mxGeometry relative="1" as="geometry"/>
                </mxCell>
                <mxCell id="18" style="edgeStyle=none;html=1;exitX=1;exitY=0;exitDx=0;exitDy=0;fontSize=11;" parent="1" source="13" target="10" edge="1">
                    <mxGeometry relative="1" as="geometry"/>
                </mxCell>
                <mxCell id="13" value="A" style="ellipse;whiteSpace=wrap;html=1;aspect=fixed;fontSize=11;" parent="1" vertex="1">
                    <mxGeometry x="182.25" y="705" width="80" height="80" as="geometry"/>
                </mxCell>
                <mxCell id="22" style="edgeStyle=none;html=1;exitX=0;exitY=0.5;exitDx=0;exitDy=0;" parent="1" source="14" target="13" edge="1">
                    <mxGeometry relative="1" as="geometry"/>
                </mxCell>
                <mxCell id="14" value="D" style="ellipse;whiteSpace=wrap;html=1;aspect=fixed;fontSize=11;" parent="1" vertex="1">
                    <mxGeometry x="344" y="715" width="80" height="80" as="geometry"/>
                </mxCell>
                <mxCell id="15" value="" style="ellipse;whiteSpace=wrap;html=1;aspect=fixed;fontSize=11;" parent="1" vertex="1">
                    <mxGeometry x="500" y="705" width="80" height="80" as="geometry"/>
                </mxCell>
                <mxCell id="21" value="&lt;div style=&quot;color: rgb(101, 123, 131); background-color: rgb(253, 246, 227); font-family: Consolas, &amp;quot;Courier New&amp;quot;, monospace; font-weight: normal; line-height: 24px;&quot;&gt;&lt;div style=&quot;&quot;&gt;&lt;font style=&quot;font-size: 12px;&quot;&gt;&lt;span style=&quot;color: rgb(133, 153, 0);&quot;&gt;func&lt;/span&gt;&lt;span style=&quot;color: rgb(101, 123, 131);&quot;&gt; &lt;/span&gt;&lt;span style=&quot;color: rgb(38, 139, 210);&quot;&gt;NewTokenServiceImpl&lt;/span&gt;&lt;span style=&quot;color: rgb(101, 123, 131);&quot;&gt;(userSvcImpl user.Service) &lt;/span&gt;&lt;span style=&quot;color: rgb(133, 153, 0);&quot;&gt;*&lt;/span&gt;&lt;span style=&quot;color: rgb(101, 123, 131);&quot;&gt;TokenServiceImpl {&lt;/span&gt;&lt;/font&gt;&lt;/div&gt;&lt;div style=&quot;&quot;&gt;&lt;font size=&quot;3&quot;&gt;&lt;span style=&quot;color: #657b83;&quot;&gt;&amp;nbsp; &amp;nbsp; &lt;/span&gt;&lt;span style=&quot;color: #859900;&quot;&gt;return&lt;/span&gt;&lt;span style=&quot;color: #657b83;&quot;&gt; &lt;/span&gt;&lt;span style=&quot;color: #859900;&quot;&gt;&amp;amp;&lt;/span&gt;&lt;span style=&quot;color: #657b83;&quot;&gt;TokenServiceImpl{&lt;/span&gt;&lt;/font&gt;&lt;/div&gt;&lt;div style=&quot;&quot;&gt;&lt;font size=&quot;3&quot;&gt;&lt;span style=&quot;color: #657b83;&quot;&gt;&amp;nbsp; &amp;nbsp; &amp;nbsp; &amp;nbsp; db: &amp;nbsp; conf.&lt;/span&gt;&lt;span style=&quot;color: #268bd2;&quot;&gt;C&lt;/span&gt;&lt;span style=&quot;color: #657b83;&quot;&gt;().MySQL.&lt;/span&gt;&lt;span style=&quot;color: #268bd2;&quot;&gt;GetConn&lt;/span&gt;&lt;span style=&quot;color: #657b83;&quot;&gt;().&lt;/span&gt;&lt;span style=&quot;color: #268bd2;&quot;&gt;Debug&lt;/span&gt;&lt;span style=&quot;color: #657b83;&quot;&gt;(),&lt;/span&gt;&lt;/font&gt;&lt;/div&gt;&lt;div style=&quot;&quot;&gt;&lt;span style=&quot;color: #657b83;&quot;&gt;&lt;font size=&quot;3&quot;&gt;&amp;nbsp; &amp;nbsp; &amp;nbsp; &amp;nbsp; user: userSvcImpl,&lt;/font&gt;&lt;/span&gt;&lt;/div&gt;&lt;div style=&quot;&quot;&gt;&lt;span style=&quot;color: #657b83;&quot;&gt;&lt;font size=&quot;3&quot;&gt;&amp;nbsp; &amp;nbsp; }&lt;/font&gt;&lt;/span&gt;&lt;/div&gt;&lt;div style=&quot;&quot;&gt;&lt;span style=&quot;color: rgb(101, 123, 131);&quot;&gt;&lt;font size=&quot;3&quot;&gt;}&lt;/font&gt;&lt;/span&gt;&lt;/div&gt;&lt;/div&gt;" style="text;whiteSpace=wrap;html=1;fontSize=11;" parent="1" vertex="1">
                    <mxGeometry x="150" y="360" width="500" height="150" as="geometry"/>
                </mxCell>
                <mxCell id="23" value="循环依赖问题" style="text;html=1;strokeColor=none;fillColor=none;align=center;verticalAlign=middle;whiteSpace=wrap;rounded=0;" parent="1" vertex="1">
                    <mxGeometry x="270" y="765" width="60" height="30" as="geometry"/>
                </mxCell>
                <mxCell id="26" value="" style="rounded=0;whiteSpace=wrap;html=1;fontSize=11;" parent="1" vertex="1">
                    <mxGeometry x="60" y="920" width="720" height="220" as="geometry"/>
                </mxCell>
                <mxCell id="28" value="X" style="ellipse;whiteSpace=wrap;html=1;aspect=fixed;fontSize=11;" parent="1" vertex="1">
                    <mxGeometry x="120" y="990" width="80" height="80" as="geometry"/>
                </mxCell>
                <mxCell id="42" value="程序的Controller" style="text;html=1;strokeColor=none;fillColor=none;align=center;verticalAlign=middle;whiteSpace=wrap;rounded=0;" parent="1" vertex="1">
                    <mxGeometry x="330" y="555" width="130" height="30" as="geometry"/>
                </mxCell>
                <mxCell id="43" value="程序的Controller" style="text;html=1;strokeColor=none;fillColor=none;align=center;verticalAlign=middle;whiteSpace=wrap;rounded=0;" parent="1" vertex="1">
                    <mxGeometry x="319" y="880" width="130" height="30" as="geometry"/>
                </mxCell>
                <mxCell id="44" value="容器层(接口)" style="text;html=1;strokeColor=none;fillColor=none;align=center;verticalAlign=middle;whiteSpace=wrap;rounded=0;" parent="1" vertex="1">
                    <mxGeometry x="370" y="1170" width="90" height="30" as="geometry"/>
                </mxCell>
                <mxCell id="59" style="edgeStyle=none;html=1;exitX=0.5;exitY=0;exitDx=0;exitDy=0;entryX=0.5;entryY=1;entryDx=0;entryDy=0;" parent="1" source="45" target="28" edge="1">
                    <mxGeometry relative="1" as="geometry"/>
                </mxCell>
                <mxCell id="45" value="A" style="ellipse;whiteSpace=wrap;html=1;aspect=fixed;fontSize=11;" parent="1" vertex="1">
                    <mxGeometry x="112.25" y="1250" width="80" height="80" as="geometry"/>
                </mxCell>
                <mxCell id="60" style="edgeStyle=none;html=1;exitX=0.5;exitY=0;exitDx=0;exitDy=0;" parent="1" source="46" target="28" edge="1">
                    <mxGeometry relative="1" as="geometry"/>
                </mxCell>
                <mxCell id="61" style="edgeStyle=none;html=1;exitX=1;exitY=0;exitDx=0;exitDy=0;" parent="1" source="46" target="53" edge="1">
                    <mxGeometry relative="1" as="geometry"/>
                </mxCell>
                <mxCell id="46" value="B" style="ellipse;whiteSpace=wrap;html=1;aspect=fixed;fontSize=11;" parent="1" vertex="1">
                    <mxGeometry x="220" y="1250" width="80" height="80" as="geometry"/>
                </mxCell>
                <mxCell id="47" value="C" style="ellipse;whiteSpace=wrap;html=1;aspect=fixed;fontSize=11;" parent="1" vertex="1">
                    <mxGeometry x="330" y="1250" width="80" height="80" as="geometry"/>
                </mxCell>
                <mxCell id="48" value="Y" style="ellipse;whiteSpace=wrap;html=1;aspect=fixed;fontSize=11;" parent="1" vertex="1">
                    <mxGeometry x="230" y="990" width="80" height="80" as="geometry"/>
                </mxCell>
                <mxCell id="49" value="Z" style="ellipse;whiteSpace=wrap;html=1;aspect=fixed;fontSize=11;" parent="1" vertex="1">
                    <mxGeometry x="344" y="1000" width="80" height="80" as="geometry"/>
                </mxCell>
                <mxCell id="53" value="A" style="ellipse;whiteSpace=wrap;html=1;aspect=fixed;fontSize=11;" parent="1" vertex="1">
                    <mxGeometry x="470" y="1000" width="80" height="80" as="geometry"/>
                </mxCell>
                <mxCell id="54" value="B" style="ellipse;whiteSpace=wrap;html=1;aspect=fixed;fontSize=11;" parent="1" vertex="1">
                    <mxGeometry x="580" y="1000" width="80" height="80" as="geometry"/>
                </mxCell>
                <mxCell id="55" value="C" style="ellipse;whiteSpace=wrap;html=1;aspect=fixed;fontSize=11;" parent="1" vertex="1">
                    <mxGeometry x="680" y="1000" width="80" height="80" as="geometry"/>
                </mxCell>
                <mxCell id="56" value="对象的注册表(Ioc Container)" style="text;html=1;strokeColor=none;fillColor=none;align=center;verticalAlign=middle;whiteSpace=wrap;rounded=0;" parent="1" vertex="1">
                    <mxGeometry x="550" y="1220" width="190" height="30" as="geometry"/>
                </mxCell>
                <mxCell id="62" value="" style="rounded=0;whiteSpace=wrap;html=1;fontSize=11;" parent="1" vertex="1">
                    <mxGeometry x="60" y="1520" width="680" height="250" as="geometry"/>
                </mxCell>
                <mxCell id="65" value="Get(name) obj" style="rounded=0;whiteSpace=wrap;html=1;" parent="1" vertex="1">
                    <mxGeometry x="530" y="1740" width="120" height="60" as="geometry"/>
                </mxCell>
                <mxCell id="68" style="edgeStyle=none;html=1;exitX=0.5;exitY=0;exitDx=0;exitDy=0;entryX=0.5;entryY=1;entryDx=0;entryDy=0;" parent="1" source="66" target="64" edge="1">
                    <mxGeometry relative="1" as="geometry"/>
                </mxCell>
                <mxCell id="66" value="UserServiceImpl&lt;br&gt;" style="rounded=0;whiteSpace=wrap;html=1;" parent="1" vertex="1">
                    <mxGeometry x="27.75" y="1910" width="120" height="60" as="geometry"/>
                </mxCell>
                <mxCell id="69" style="edgeStyle=none;html=1;exitX=0.5;exitY=0;exitDx=0;exitDy=0;" parent="1" source="67" edge="1" target="64">
                    <mxGeometry relative="1" as="geometry">
                        <mxPoint x="220" y="1800" as="targetPoint"/>
                    </mxGeometry>
                </mxCell>
                <mxCell id="67" value="TokenServiceImpl" style="rounded=0;whiteSpace=wrap;html=1;" parent="1" vertex="1">
                    <mxGeometry x="210" y="1910" width="120" height="60" as="geometry"/>
                </mxCell>
                <mxCell id="70" value="&lt;h1&gt;常用注册手段&lt;/h1&gt;&lt;div&gt;_ import xxxx&lt;/div&gt;&lt;div&gt;&lt;br&gt;&lt;/div&gt;&lt;div&gt;init()&lt;/div&gt;" style="text;html=1;strokeColor=none;fillColor=none;spacing=5;spacingTop=-20;whiteSpace=wrap;overflow=hidden;rounded=0;" parent="1" vertex="1">
                    <mxGeometry x="520" y="1870" width="190" height="120" as="geometry"/>
                </mxCell>
                <mxCell id="71" value="Controller" style="rounded=0;whiteSpace=wrap;html=1;" parent="1" vertex="1">
                    <mxGeometry x="100" y="1560" width="182" height="110" as="geometry"/>
                </mxCell>
                <mxCell id="72" value="map" style="text;html=1;strokeColor=none;fillColor=#00CC66;align=center;verticalAlign=middle;whiteSpace=wrap;rounded=0;" parent="1" vertex="1">
                    <mxGeometry x="222" y="1560" width="60" height="30" as="geometry"/>
                </mxCell>
                <mxCell id="73" value="ApiHanler" style="rounded=0;whiteSpace=wrap;html=1;" parent="1" vertex="1">
                    <mxGeometry x="308" y="1560" width="182" height="110" as="geometry"/>
                </mxCell>
                <mxCell id="74" value="map" style="text;html=1;strokeColor=none;fillColor=none;align=center;verticalAlign=middle;whiteSpace=wrap;rounded=0;" parent="1" vertex="1">
                    <mxGeometry x="430" y="1560" width="60" height="30" as="geometry"/>
                </mxCell>
                <mxCell id="75" value="Default" style="rounded=0;whiteSpace=wrap;html=1;" parent="1" vertex="1">
                    <mxGeometry x="520" y="1560" width="182" height="110" as="geometry"/>
                </mxCell>
                <mxCell id="76" value="map" style="text;html=1;strokeColor=none;fillColor=none;align=center;verticalAlign=middle;whiteSpace=wrap;rounded=0;" parent="1" vertex="1">
                    <mxGeometry x="640" y="1560" width="60" height="30" as="geometry"/>
                </mxCell>
                <mxCell id="77" value="Ioc 承担对象的管理" style="text;html=1;strokeColor=none;fillColor=none;align=center;verticalAlign=middle;whiteSpace=wrap;rounded=0;" parent="1" vertex="1">
                    <mxGeometry x="60" y="1490" width="120" height="30" as="geometry"/>
                </mxCell>
                <mxCell id="78" value="Config" style="rounded=0;whiteSpace=wrap;html=1;" parent="1" vertex="1">
                    <mxGeometry x="90" y="2050" width="700" height="140" as="geometry"/>
                </mxCell>
                <mxCell id="79" value="A" style="ellipse;whiteSpace=wrap;html=1;aspect=fixed;fontSize=11;" parent="1" vertex="1">
                    <mxGeometry x="150" y="2080" width="80" height="80" as="geometry"/>
                </mxCell>
                <mxCell id="80" value="A" style="ellipse;whiteSpace=wrap;html=1;aspect=fixed;fontSize=11;" parent="1" vertex="1">
                    <mxGeometry x="250" y="2080" width="80" height="80" as="geometry"/>
                </mxCell>
                <mxCell id="81" value="A" style="ellipse;whiteSpace=wrap;html=1;aspect=fixed;fontSize=11;" parent="1" vertex="1">
                    <mxGeometry x="350" y="2080" width="80" height="80" as="geometry"/>
                </mxCell>
                <mxCell id="82" value="A" style="ellipse;whiteSpace=wrap;html=1;aspect=fixed;fontSize=11;" parent="1" vertex="1">
                    <mxGeometry x="510" y="2070" width="80" height="80" as="geometry"/>
                </mxCell>
                <mxCell id="83" value="对象注册阶段" style="text;html=1;strokeColor=none;fillColor=none;align=center;verticalAlign=middle;whiteSpace=wrap;rounded=0;" parent="1" vertex="1">
                    <mxGeometry x="90" y="2020" width="110" height="30" as="geometry"/>
                </mxCell>
                <mxCell id="84" value="Config" style="rounded=0;whiteSpace=wrap;html=1;" parent="1" vertex="1">
                    <mxGeometry x="90" y="2230" width="700" height="140" as="geometry"/>
                </mxCell>
                <mxCell id="85" value="A(Reday)" style="ellipse;whiteSpace=wrap;html=1;aspect=fixed;fontSize=11;" parent="1" vertex="1">
                    <mxGeometry x="170" y="2258" width="80" height="80" as="geometry"/>
                </mxCell>
                <mxCell id="86" value="A(Db)" style="ellipse;whiteSpace=wrap;html=1;aspect=fixed;fontSize=11;" parent="1" vertex="1">
                    <mxGeometry x="282" y="2260" width="80" height="80" as="geometry"/>
                </mxCell>
                <mxCell id="87" value="A(xxx)" style="ellipse;whiteSpace=wrap;html=1;aspect=fixed;fontSize=11;" parent="1" vertex="1">
                    <mxGeometry x="382.25" y="2260" width="80" height="80" as="geometry"/>
                </mxCell>
                <mxCell id="88" value="A(xxx)" style="ellipse;whiteSpace=wrap;html=1;aspect=fixed;fontSize=11;" parent="1" vertex="1">
                    <mxGeometry x="500" y="2258" width="80" height="80" as="geometry"/>
                </mxCell>
                <mxCell id="89" value="对象初始化" style="text;html=1;strokeColor=none;fillColor=none;align=center;verticalAlign=middle;whiteSpace=wrap;rounded=0;" parent="1" vertex="1">
                    <mxGeometry x="85" y="2200" width="110" height="30" as="geometry"/>
                </mxCell>
                <mxCell id="92" value="Init" style="rounded=1;whiteSpace=wrap;html=1;" parent="1" vertex="1">
                    <mxGeometry x="113" y="1570" width="82" height="30" as="geometry"/>
                </mxCell>
                <mxCell id="93" value="Init" style="rounded=1;whiteSpace=wrap;html=1;" parent="1" vertex="1">
                    <mxGeometry x="319" y="1570" width="82" height="30" as="geometry"/>
                </mxCell>
                <mxCell id="94" value="Init" style="rounded=1;whiteSpace=wrap;html=1;" parent="1" vertex="1">
                    <mxGeometry x="534" y="1570" width="82" height="30" as="geometry"/>
                </mxCell>
                <mxCell id="95" value="&lt;div style=&quot;color: rgb(101, 123, 131); background-color: rgb(253, 246, 227); font-family: Consolas, &amp;quot;Courier New&amp;quot;, monospace; font-weight: normal; font-size: 18px; line-height: 24px;&quot;&gt;&lt;div&gt;&lt;span style=&quot;color: #657b83;&quot;&gt;&amp;nbsp; &amp;nbsp; &lt;/span&gt;&lt;span style=&quot;color: #93a1a1;font-style: italic;&quot;&gt;// 注册对象&lt;/span&gt;&lt;/div&gt;&lt;div&gt;&lt;span style=&quot;color: #657b83;&quot;&gt;&amp;nbsp; &amp;nbsp; _ &lt;/span&gt;&lt;span style=&quot;color: #2aa198;&quot;&gt;&quot;gitee.com/go-course/go12/vblog/apps&quot;&lt;/span&gt;&lt;/div&gt;&lt;/div&gt;" style="text;whiteSpace=wrap;html=1;" parent="1" vertex="1">
                    <mxGeometry x="100" y="2460" width="460" height="70" as="geometry"/>
                </mxCell>
                <mxCell id="96" value="&lt;div style=&quot;color: rgb(101, 123, 131); background-color: rgb(253, 246, 227); font-family: Consolas, &amp;quot;Courier New&amp;quot;, monospace; font-weight: normal; font-size: 18px; line-height: 24px;&quot;&gt;&lt;div&gt;&lt;span style=&quot;color: #657b83;&quot;&gt;&amp;nbsp; &amp;nbsp; &lt;/span&gt;&lt;span style=&quot;color: #93a1a1;font-style: italic;&quot;&gt;//2. 初始化控制&lt;/span&gt;&lt;/div&gt;&lt;div&gt;&lt;span style=&quot;color: #657b83;&quot;&gt;&amp;nbsp; &amp;nbsp; &lt;/span&gt;&lt;span style=&quot;color: #93a1a1;font-style: italic;&quot;&gt;// 2.1 user controller&lt;/span&gt;&lt;/div&gt;&lt;div&gt;&lt;span style=&quot;color: #657b83;&quot;&gt;&amp;nbsp; &amp;nbsp; &lt;/span&gt;&lt;span style=&quot;color: #93a1a1;font-style: italic;&quot;&gt;// userServiceImpl := userImpl.NewUserServiceImpl()&lt;/span&gt;&lt;/div&gt;&lt;div&gt;&lt;span style=&quot;color: #657b83;&quot;&gt;&amp;nbsp; &amp;nbsp; &lt;/span&gt;&lt;span style=&quot;color: #93a1a1;font-style: italic;&quot;&gt;// 2.2 token controller&lt;/span&gt;&lt;/div&gt;&lt;div&gt;&lt;span style=&quot;color: #657b83;&quot;&gt;&amp;nbsp; &amp;nbsp; &lt;/span&gt;&lt;span style=&quot;color: #93a1a1;font-style: italic;&quot;&gt;// tokenServiceImpl := tokenImpl.NewTokenServiceImpl(userServiceImpl)&lt;/span&gt;&lt;/div&gt;&lt;div&gt;&lt;span style=&quot;color: #657b83;&quot;&gt;&amp;nbsp; &amp;nbsp; &lt;/span&gt;&lt;span style=&quot;color: #93a1a1;font-style: italic;&quot;&gt;// ....&lt;/span&gt;&lt;/div&gt;&lt;div&gt;&lt;span style=&quot;color: #657b83;&quot;&gt;&amp;nbsp; &amp;nbsp; &lt;/span&gt;&lt;span style=&quot;color: #859900;&quot;&gt;if&lt;/span&gt;&lt;span style=&quot;color: #657b83;&quot;&gt; &lt;/span&gt;&lt;span style=&quot;color: #268bd2;&quot;&gt;err&lt;/span&gt;&lt;span style=&quot;color: #657b83;&quot;&gt; &lt;/span&gt;&lt;span style=&quot;color: #859900;&quot;&gt;:=&lt;/span&gt;&lt;span style=&quot;color: #657b83;&quot;&gt; ioc.&lt;/span&gt;&lt;span style=&quot;color: #268bd2;&quot;&gt;Controller&lt;/span&gt;&lt;span style=&quot;color: #657b83;&quot;&gt;().&lt;/span&gt;&lt;span style=&quot;color: #268bd2;&quot;&gt;Init&lt;/span&gt;&lt;span style=&quot;color: #657b83;&quot;&gt;(); err &lt;/span&gt;&lt;span style=&quot;color: #859900;&quot;&gt;!=&lt;/span&gt;&lt;span style=&quot;color: #657b83;&quot;&gt; &lt;/span&gt;&lt;span style=&quot;color: #b58900;&quot;&gt;nil&lt;/span&gt;&lt;span style=&quot;color: #657b83;&quot;&gt; {&lt;/span&gt;&lt;/div&gt;&lt;div&gt;&lt;span style=&quot;color: #657b83;&quot;&gt;&amp;nbsp; &amp;nbsp; &amp;nbsp; &amp;nbsp; fmt.&lt;/span&gt;&lt;span style=&quot;color: #268bd2;&quot;&gt;Println&lt;/span&gt;&lt;span style=&quot;color: #657b83;&quot;&gt;(err)&lt;/span&gt;&lt;/div&gt;&lt;div&gt;&lt;span style=&quot;color: #657b83;&quot;&gt;&amp;nbsp; &amp;nbsp; &amp;nbsp; &amp;nbsp; os.&lt;/span&gt;&lt;span style=&quot;color: #268bd2;&quot;&gt;Exit&lt;/span&gt;&lt;span style=&quot;color: #657b83;&quot;&gt;(&lt;/span&gt;&lt;span style=&quot;color: #d33682;&quot;&gt;1&lt;/span&gt;&lt;span style=&quot;color: #657b83;&quot;&gt;)&lt;/span&gt;&lt;/div&gt;&lt;div&gt;&lt;span style=&quot;color: #657b83;&quot;&gt;&amp;nbsp; &amp;nbsp; }&lt;/span&gt;&lt;/div&gt;&lt;/div&gt;" style="text;whiteSpace=wrap;html=1;" parent="1" vertex="1">
                    <mxGeometry x="100" y="2550" width="560" height="310" as="geometry"/>
                </mxCell>
                <mxCell id="98" style="edgeStyle=orthogonalEdgeStyle;html=1;exitX=0.5;exitY=0;exitDx=0;exitDy=0;" edge="1" parent="1" source="97" target="99">
                    <mxGeometry relative="1" as="geometry">
                        <mxPoint x="113.38000000000011" y="1739" as="targetPoint"/>
                    </mxGeometry>
                </mxCell>
                <mxCell id="97" value="TokenApiHandler" style="rounded=0;whiteSpace=wrap;html=1;" vertex="1" parent="1">
                    <mxGeometry x="344" y="1910" width="120" height="60" as="geometry"/>
                </mxCell>
                <mxCell id="64" value="Registry(name, obj)" style="rounded=0;whiteSpace=wrap;html=1;" parent="1" vertex="1">
                    <mxGeometry x="130" y="1640" width="120" height="60" as="geometry"/>
                </mxCell>
                <mxCell id="99" value="Registry(name, obj)" style="rounded=0;whiteSpace=wrap;html=1;" vertex="1" parent="1">
                    <mxGeometry x="344" y="1660" width="120" height="60" as="geometry"/>
                </mxCell>
                <mxCell id="100" value="路由注册" style="rounded=1;whiteSpace=wrap;html=1;" vertex="1" parent="1">
                    <mxGeometry x="319" y="1620" width="82" height="30" as="geometry"/>
                </mxCell>
            </root>
        </mxGraphModel>
    </diagram>
</mxfile>